<?xml version="1.0" standalone="no"?>
<!DOCTYPE svg PUBLIC "-//W3C//DTD SVG 20010904//EN"
 "http://www.w3.org/TR/2001/REC-SVG-20010904/DTD/svg10.dtd">
<svg version="1.0" xmlns="http://www.w3.org/2000/svg"
 width="75.000000pt" height="18.000000pt" viewBox="0 0 800.000000 218.000000"
 preserveAspectRatio="xMidYMid meet">

<g transform="translate(0.000000,218.000000) scale(0.100000,-0.100000)"
fill="#e50914" stroke="none">
<path d="M0 1085 c0 -1030 1 -1086 18 -1081 9 2 73 12 142 21 69 9 135 18 147
21 l23 4 2 588 3 587 67 -190 c37 -104 125 -356 197 -558 71 -203 132 -371
135 -375 4 -3 89 3 189 14 l182 19 3 1018 2 1017 -165 0 -165 0 -1 -617 0
-618 -39 105 c-45 124 -85 236 -264 745 l-134 380 -171 3 -171 2 0 -1085z"/>
<path d="M1480 1170 c0 -793 3 -1000 13 -1000 6 0 62 4 122 10 61 5 218 16
350 25 132 8 259 18 283 21 l42 5 0 154 0 153 -57 -4 c-169 -12 -355 -24 -382
-24 l-31 0 0 250 0 250 205 0 205 0 0 155 0 155 -205 0 -205 0 0 270 0 270
235 0 235 0 0 155 0 155 -405 0 -405 0 0 -1000z"/>
<path d="M2620 2015 l0 -155 160 0 160 0 0 -800 0 -800 58 0 c31 0 108 3 170
7 l112 6 0 794 0 793 160 0 160 0 0 155 0 155 -490 0 -490 0 0 -155z"/>
<path d="M3940 1225 l0 -945 170 0 170 0 2 368 3 367 203 3 202 2 0 150 0 150
-205 0 -205 0 0 270 0 270 235 0 235 0 0 155 0 155 -405 0 -405 0 0 -945z"/>
<path d="M5090 1216 l0 -955 53 -5 c28 -3 158 -10 287 -16 306 -13 431 -20
453 -25 16 -3 17 10 17 154 l0 158 -92 6 c-51 4 -157 10 -235 13 l-143 7 0
808 0 809 -170 0 -170 0 0 -954z"/>
<path d="M6230 1182 l0 -988 143 -12 c78 -7 154 -12 170 -12 l27 0 0 1000 0
1000 -170 0 -170 0 0 -988z"/>
<path d="M6900 2166 c0 -6 138 -402 249 -714 l100 -282 -111 -273 c-61 -149
-154 -380 -208 -512 -54 -132 -97 -241 -97 -241 5 -4 328 -36 331 -33 1 2 15
36 30 74 90 229 209 515 215 515 4 0 21 -42 38 -93 17 -50 68 -196 113 -323
l82 -231 169 -23 c93 -13 172 -20 176 -17 3 4 -15 64 -40 134 -25 71 -116 327
-202 571 l-155 443 119 297 c66 163 156 386 200 495 45 109 81 203 81 208 0 5
-71 9 -169 9 l-168 0 -52 -127 c-28 -71 -77 -192 -109 -270 -31 -79 -59 -143
-63 -143 -3 0 -48 121 -100 270 l-94 270 -167 0 c-93 0 -168 -2 -168 -4z"/>
</g>
</svg>
